<svg xmlns="http://www.w3.org/2000/svg" width="64" height="64" viewBox="0 0 64 64" fill="none">
  <rect width="64" height="64" rx="18" fill="#FFF6CF"/>
  <g shape-rendering="crispEdges">
    <rect x="24" y="12" width="16" height="4" fill="#1A1A1A"/>
    <rect x="20" y="16" width="4" height="4" fill="#1A1A1A"/>
    <rect x="40" y="16" width="4" height="4" fill="#1A1A1A"/>
    <rect x="24" y="16" width="16" height="4" fill="#FFFFFF"/>
    <rect x="20" y="20" width="4" height="4" fill="#1A1A1A"/>
    <rect x="40" y="20" width="4" height="4" fill="#1A1A1A"/>
    <rect x="24" y="20" width="16" height="4" fill="#FFFFFF"/>
    <rect x="28" y="20" width="4" height="4" fill="#1A1A1A"/>
    <rect x="36" y="20" width="4" height="4" fill="#1A1A1A"/>
    <rect x="24" y="24" width="4" height="4" fill="#1A1A1A"/>
    <rect x="40" y="24" width="4" height="4" fill="#1A1A1A"/>
    <rect x="28" y="24" width="12" height="4" fill="#FFFFFF"/>
    <rect x="40" y="24" width="4" height="4" fill="#FFB627"/>
    <rect x="44" y="24" width="4" height="4" fill="#E89B0A"/>
    <rect x="16" y="28" width="4" height="4" fill="#1A1A1A"/>
    <rect x="20" y="28" width="28" height="4" fill="#1A1A1A"/>
    <rect x="48" y="28" width="4" height="4" fill="#1A1A1A"/>
    <rect x="12" y="32" width="4" height="4" fill="#1A1A1A"/>
    <rect x="16" y="32" width="32" height="4" fill="#FFFFFF"/>
    <rect x="48" y="32" width="4" height="4" fill="#1A1A1A"/>
    <rect x="12" y="36" width="4" height="4" fill="#1A1A1A"/>
    <rect x="16" y="36" width="32" height="4" fill="#E8E8E8"/>
    <rect x="48" y="36" width="4" height="4" fill="#1A1A1A"/>
    <rect x="16" y="40" width="4" height="4" fill="#1A1A1A"/>
    <rect x="20" y="40" width="28" height="4" fill="#1A1A1A"/>
    <rect x="48" y="40" width="4" height="4" fill="#1A1A1A"/>
    <rect x="20" y="44" width="4" height="4" fill="#FF8A33"/>
    <rect x="40" y="44" width="4" height="4" fill="#FF8A33"/>
    <rect x="16" y="48" width="12" height="4" fill="#FF8A33"/>
    <rect x="36" y="48" width="12" height="4" fill="#FF8A33"/>
  </g>
</svg>
